<?xml version="1.0" encoding="UTF-8" standalone="no"?><!DOCTYPE svg PUBLIC "-//W3C//DTD SVG 1.1//EN" "http://www.w3.org/Graphics/SVG/1.1/DTD/svg11.dtd"><svg width="100%" height="100%" viewBox="0 0 800 800" version="1.1" xmlns="http://www.w3.org/2000/svg" xmlns:xlink="http://www.w3.org/1999/xlink" xml:space="preserve" xmlns:serif="http://www.serif.com/" style="fill-rule:evenodd;clip-rule:evenodd;stroke-linecap:round;stroke-linejoin:round;stroke-miterlimit:1.5;"><path d="M800,200c0,-110.383 -89.617,-200 -200,-200l-400,0c-110.383,0 -200,89.617 -200,200l-0,400c-0,110.383 89.617,200 200,200l400,0c110.383,0 200,-89.617 200,-200l0,-400Z" style="fill:#f6f6f6;"/><g><g><path d="M336.185,70.582l306.681,84.897l30.129,29.155l-188.207,509.361c-17.967,34.339 -56.388,38.428 -84.788,28.991l-271.512,-108.3l207.697,-544.104Z" style="fill:none;stroke:#000;stroke-width:9.5px;"/><path d="M641.374,157.375l-173.817,498.258c-13.573,44.383 -36.568,62.736 -67.557,67.375" style="fill:none;stroke:#000;stroke-width:9.5px;"/></g><g><path d="M250.124,565.84l34.322,-4.692" style="fill:none;stroke:#000;stroke-width:9.5px;"/><path d="M301.576,587.223l37.267,-7.394" style="fill:none;stroke:#000;stroke-width:9.5px;"/></g><g><path d="M335.195,632.869l8.35,56.226" style="fill:none;stroke:#000;stroke-width:9.5px;"/><path d="M354.737,629.314l8.35,56.226" style="fill:none;stroke:#000;stroke-width:9.5px;"/><path d="M374.354,626.351l8.35,56.226" style="fill:none;stroke:#000;stroke-width:9.5px;"/><path d="M391.65,623.257l8.35,56.226" style="fill:none;stroke:#000;stroke-width:9.5px;"/><path d="M412.277,619.565l8.35,56.225" style="fill:none;stroke:#000;stroke-width:9.5px;"/><path d="M432.34,615.917l8.35,56.226" style="fill:none;stroke:#000;stroke-width:9.5px;"/></g><path d="M599.333,350.822l-8.55,22.265" style="fill:none;stroke:#000;stroke-width:9.5px;"/><g><path d="M568.143,451.098l5.234,2.236" style="fill:none;stroke:#000;stroke-width:9.5px;"/><path d="M561.908,465.803l5.235,2.236" style="fill:none;stroke:#000;stroke-width:9.5px;"/><path d="M555.964,483.408l5.234,2.236" style="fill:none;stroke:#000;stroke-width:9.5px;"/><path d="M550.729,498.204l5.235,2.237" style="fill:none;stroke:#000;stroke-width:9.5px;"/><path d="M544.495,513.915l5.234,2.237" style="fill:none;stroke:#000;stroke-width:9.5px;"/><path d="M539.26,528.62l5.235,2.237" style="fill:none;stroke:#000;stroke-width:9.5px;"/><path d="M533.315,546.225l5.235,2.237" style="fill:none;stroke:#000;stroke-width:9.5px;"/><path d="M527.788,561.022l5.234,2.237" style="fill:none;stroke:#000;stroke-width:9.5px;"/><path d="M522.385,574.713l5.234,2.236" style="fill:none;stroke:#000;stroke-width:9.5px;"/><path d="M516.15,589.418l5.235,2.236" style="fill:none;stroke:#000;stroke-width:9.5px;"/><path d="M510.206,607.023l5.234,2.236" style="fill:none;stroke:#000;stroke-width:9.5px;"/><path d="M504.971,621.82l5.235,2.236" style="fill:none;stroke:#000;stroke-width:9.5px;"/><path d="M498.027,639.397l5.234,2.236" style="fill:none;stroke:#000;stroke-width:9.5px;"/></g><g><ellipse cx="402.122" cy="526.872" rx="21.963" ry="22.19" style="fill:#f6f6f6;stroke:#000;stroke-width:9.5px;"/><ellipse cx="463.919" cy="516.152" rx="21.963" ry="22.19" style="fill:#f6f6f6;stroke:#000;stroke-width:9.5px;"/></g><g><path d="M277.255,433.308c1.368,-3.476 -0.343,-7.41 -3.82,-8.778l-12.599,-4.958c-3.477,-1.368 -7.41,0.344 -8.779,3.821l-27.557,70.032c-1.369,3.477 0.343,7.41 3.82,8.778l12.599,4.958c3.477,1.368 7.41,-0.344 8.778,-3.821l27.558,-70.032Z" style="stroke:#000;stroke-width:9.5px;"/><path d="M281.098,489.558c3.485,1.347 7.408,-0.39 8.755,-3.875l4.88,-12.629c1.346,-3.485 -0.39,-7.408 -3.875,-8.755l-70.201,-27.124c-3.486,-1.346 -7.408,0.39 -8.755,3.875l-4.88,12.629c-1.346,3.486 0.39,7.408 3.875,8.755l70.201,27.124Z" style="stroke:#000;stroke-width:9.5px;"/></g><g><path d="M326.348,134.009c5.074,-12.945 10.766,-21.791 28.987,-15.411l223.056,65.985c17.835,5.656 27.443,11.13 21.668,26.907l-61.405,168.954c-12.453,26.703 -35.863,34.726 -70.359,23.847l-190.568,-61.498c-20.281,-6.305 -26.099,-13.641 -16.18,-39.969l64.801,-168.815Z" style="stroke:#000;stroke-width:2.5px;"/><path d="M377.609,163.453l157.833,47.201l-56.954,154.823l-159.835,-50.357l58.956,-151.667Z" style="fill:#fff;stroke:#fff;stroke-width:2.5px;"/></g></g></svg>