<?xml version="1.0" encoding="UTF-8" standalone="no"?><!DOCTYPE svg PUBLIC "-//W3C//DTD SVG 1.1//EN"
        "http://www.w3.org/Graphics/SVG/1.1/DTD/svg11.dtd">
<svg xmlns:xlink="http://www.w3.org/1999/xlink" xmlns:serif="http://www.serif.com/" width="100%" height="100%" viewBox="0 0 686 688"
     version="1.1" xmlns="http://www.w3.org/2000/svg" xml:space="preserve"
     style="fill-rule:evenodd;clip-rule:evenodd;stroke-linejoin:round;stroke-miterlimit:2;">
    <g id="blockdesign">
        <path
                id="Rectangle_2"
                d="M514,19c0,-10.486 -8.514,-19 -19,-19l-134,0c-10.486,0 -19,8.514 -19,19l0,134c0,10.486 8.514,19 19,19l134,0c10.486,0 19,-8.514 19,-19l0,-134Z"
                style="fill:#131313;"/>
        <path
                id="Rectangle_10"
                d="M514,258c0,-47.465 -38.535,-86 -86,-86c-47.465,0 -86,38.535 -86,86c0,47.465 38.535,86 86,86c47.465,0 86,-38.535 86,-86Z"
                style="fill:#c2c2c2;"/>
        <path
                id="Rectangle_8"
                d="M686,191c0,-10.486 -8.514,-19 -19,-19l-134,0c-10.486,0 -19,8.514 -19,19l0,134c0,10.486 8.514,19 19,19l134,0c10.486,0 19,-8.514 19,-19l0,-134Z"
                style="fill:#7f7f7f;"/>
        <path
                id="Rectangle_5"
                d="M514,363c0,-10.486 -8.514,-19 -19,-19l-134,0c-10.486,0 -19,8.514 -19,19l0,134c0,10.486 8.514,19 19,19l134,0c10.486,0 19,-8.514 19,-19l0,-134Z"
                style="fill:#141414;"/>
        <path
                id="Rectangle_3"
                d="M344,191c0,-10.486 -8.514,-19 -19,-19l-134,0c-10.486,0 -19,8.514 -19,19l0,134c0,10.486 8.514,19 19,19l134,0c10.486,0 19,-8.514 19,-19l0,-134Z"
                style="fill:#3d3d3d;"/>
        <path
                id="Rectangle_9"
                d="M344,430c0,-47.465 -38.535,-86 -86,-86c-47.465,0 -86,38.535 -86,86c0,47.465 38.535,86 86,86c47.465,0 86,-38.535 86,-86Z"
                style="fill:#c0c0c0;"/>
        <path
                id="Rectangle_7"
                d="M172,363c0,-10.486 -8.514,-19 -19,-19l-134,0c-10.486,0 -19,8.514 -19,19l0,134c0,10.486 8.514,19 19,19l134,0c10.486,0 19,-8.514 19,-19l0,-134Z"
                style="fill:#808080;"/>
        <path
                id="Rectangle_4"
                d="M344,535c0,-10.486 -8.514,-19 -19,-19l-134,0c-10.486,0 -19,8.514 -19,19l0,134c0,10.486 8.514,19 19,19l134,0c10.486,0 19,-8.514 19,-19l0,-134Z"
                style="fill:#3d3d3d;"/>
    </g>
</svg>